<svg xmlns="http://www.w3.org/2000/svg" width="120" height="120" fill="none" viewBox="0 0 120 120"><path fill="url(#a)" d="M59.573 77.1a2.6 2.6 0 0 1-1.18.349l-13.47.645c-3.824.182-7.113-.188-10.059-1.127-6.446-2.052-11.856-6.328-15.228-12.047L8.528 46.102c-1.282-2.172-.995-4.946.708-6.904l15.252-17.49a6.3 6.3 0 0 1 3.536-2.054l22.828-4.631c2.553-.522 5.132.59 6.41 2.761l11.115 18.833c3.37 5.708 4.485 12.476 3.14 19.056-.617 3.019-1.904 6.045-3.929 9.252L60.452 76.25c-.22.353-.524.643-.88.85"/><g filter="url(#b)"><path fill="#1EA51F" fill-opacity=".5" d="M53.616 65.888c-.242.139-.512.23-.787.257l-8.87.895c-2.518.252-4.664.147-6.564-.32-4.156-1.021-7.548-3.445-9.548-6.83L21.26 48.752c-.76-1.285-.468-2.998.724-4.263l10.672-11.297a4.87 4.87 0 0 1 2.399-1.39l15.164-3.687c1.697-.414 3.348.173 4.106 1.458l6.593 11.145c1.999 3.38 2.477 7.491 1.347 11.579-.519 1.875-1.477 3.78-2.927 5.823l-5.111 7.214a1.9 1.9 0 0 1-.61.554"/></g><g filter="url(#c)"><mask id="e" width="91.118" height="101.63" x="28.043" y="16.282" fill="#000" maskUnits="userSpaceOnUse"><path fill="#fff" d="M28.043 16.282h91.118v101.63H28.043z"/><path d="M66.877 110.082a3.46 3.46 0 0 1-1.513-.614L50.883 98.972c-4.109-2.981-7.201-6.096-9.461-9.52-4.948-7.49-6.955-16.446-5.642-25.22l4.308-28.88c.496-3.333 3.123-5.993 6.528-6.628l30.469-5.633a8.36 8.36 0 0 1 5.383.787l27.509 14.09c3.08 1.572 4.815 4.873 4.314 8.201l-4.311 28.902c-1.306 8.761-5.836 16.759-12.752 22.52-3.173 2.644-7.046 4.74-11.834 6.413l-16.893 5.919a3.4 3.4 0 0 1-1.624.159"/></mask><path fill="#72DC60" fill-opacity=".35" d="M66.877 110.082a3.46 3.46 0 0 1-1.513-.614L50.883 98.972c-4.109-2.981-7.201-6.096-9.461-9.52-4.948-7.49-6.955-16.446-5.642-25.22l4.308-28.88c.496-3.333 3.123-5.993 6.528-6.628l30.469-5.633a8.36 8.36 0 0 1 5.383.787l27.509 14.09c3.08 1.572 4.815 4.873 4.314 8.201l-4.311 28.902c-1.306 8.761-5.836 16.759-12.752 22.52-3.173 2.644-7.046 4.74-11.834 6.413l-16.893 5.919a3.4 3.4 0 0 1-1.624.159"/><path fill="url(#d)" d="M66.723 111.07a1.004 1.004 0 0 0 1.142-.838.995.995 0 0 0-.834-1.138zm-1.36-1.602.59-.81zm-14.48-10.496-.59.809zm-9.461-9.52.836-.552zm-5.642-25.22.99.144zm4.308-28.88.99.144zm6.528-6.628-.178-.983h-.002zm30.469-5.633.178.983.008-.002zm5.383.787-.462.888.003.002zm27.509 14.09-.459.89h.001zm4.314 8.201-.989-.145v.002zm-4.311 28.902-.99-.144zM97.228 97.59l.639.768zm-11.834 6.413-.327-.943h-.001zm-16.893 5.919-.328-.943-.005.001zm-1.478-.83a1.004 1.004 0 0 0-1.136.846.996.996 0 0 0 .844 1.132zm.008.001a2.5 2.5 0 0 1-1.078-.436l-1.179 1.62a4.5 4.5 0 0 0 1.949.792zm-1.078-.436-14.48-10.496-1.18 1.62 14.481 10.496zm-14.48-10.496c-4.034-2.926-7.034-5.958-9.215-9.263l-1.672 1.105c2.339 3.544 5.523 6.742 9.707 9.777zM42.258 88.9c-4.815-7.288-6.764-15.996-5.489-24.523l-1.979-.288c-1.35 9.022.715 18.224 5.796 25.916zm-5.489-24.523 4.308-28.88-1.979-.287-4.308 28.88zm4.308-28.88c.431-2.893 2.718-5.23 5.72-5.79l-.36-1.965c-3.81.71-6.777 3.695-7.34 7.468zm5.718-5.79 30.468-5.632-.357-1.966-30.468 5.633zm30.476-5.634a7.36 7.36 0 0 1 4.735.694l.923-1.777a9.36 9.36 0 0 0-6.03-.88zm4.738.696 27.509 14.09.918-1.78-27.51-14.09zm27.51 14.09c2.713 1.385 4.217 4.278 3.783 7.166l1.979.29c.566-3.768-1.398-7.477-4.846-9.236zm3.783 7.168-4.312 28.9 1.98.288 4.311-28.9zm-4.312 28.9c-1.269 8.515-5.671 16.292-12.401 21.9l1.278 1.533c7.103-5.918 11.76-14.136 13.103-23.145zm-12.401 21.9c-3.062 2.55-6.822 4.592-11.522 6.235l.654 1.886c4.877-1.704 8.861-3.853 12.146-6.588zm-11.523 6.235-16.893 5.919.656 1.886 16.893-5.919zm-16.898 5.92c-.366.13-.76.167-1.145.112l-.292 1.978c.698.1 1.42.036 2.102-.207z" mask="url(#e)"/></g><g filter="url(#f)"><path fill="url(#g)" d="M68.72 76.192a3.37 3.37 0 0 1-2.2-1.278l-7.133-9.292a3.167 3.167 0 0 1 .677-4.525c1.477-1.064 3.57-.759 4.676.68l5.134 6.683 16.977-12.206c1.481-1.063 3.575-.758 4.676.68a3.164 3.164 0 0 1-.673 4.526L71.197 75.594a3.38 3.38 0 0 1-2.477.598"/><path stroke="url(#h)" stroke-opacity=".5" stroke-width=".2" d="M60.122 61.178a3.067 3.067 0 0 0-.656 4.383l7.134 9.292a3.27 3.27 0 0 0 2.135 1.24 3.28 3.28 0 0 0 2.404-.58l19.656-14.134a3.064 3.064 0 0 0 .652-4.384c-1.068-1.395-3.1-1.691-4.538-.66zm0 0c1.434-1.032 3.466-.736 4.539.66l5.134 6.683.059.076.078-.056L86.91 56.335z"/></g><defs><linearGradient id="a" x1="50.725" x2="33.654" y1="6.265" y2="70.412" gradientUnits="userSpaceOnUse"><stop stop-color="#9BF763"/><stop offset="1" stop-color="#26AB5B"/></linearGradient><linearGradient id="d" x1="53.133" x2="100.502" y1="29.348" y2="97.884" gradientUnits="userSpaceOnUse"><stop stop-color="#fff" stop-opacity=".25"/><stop offset="1" stop-color="#fff" stop-opacity="0"/></linearGradient><linearGradient id="g" x1="89.732" x2="53.843" y1="59.99" y2="56.051" gradientUnits="userSpaceOnUse"><stop stop-color="#fff"/><stop offset="1" stop-color="#fff" stop-opacity=".2"/></linearGradient><linearGradient id="h" x1="62.859" x2="90.014" y1="59.574" y2="64.015" gradientUnits="userSpaceOnUse"><stop stop-color="#fff"/><stop offset="1" stop-color="#fff" stop-opacity="0"/></linearGradient><filter id="b" width="74.023" height="71.189" x="4.84" y="11.984" color-interpolation-filters="sRGB" filterUnits="userSpaceOnUse"><feFlood flood-opacity="0" result="BackgroundImageFix"/><feBlend in="SourceGraphic" in2="BackgroundImageFix" result="shape"/><feGaussianBlur result="effect1_foregroundBlur_3136_9417" stdDeviation="8"/></filter><filter id="c" width="128.99" height="137.171" x="10.387" y="-2.055" color-interpolation-filters="sRGB" filterUnits="userSpaceOnUse"><feFlood flood-opacity="0" result="BackgroundImageFix"/><feGaussianBlur in="BackgroundImageFix" stdDeviation="12"/><feComposite in2="SourceAlpha" operator="in" result="effect1_backgroundBlur_3136_9417"/><feBlend in="SourceGraphic" in2="effect1_backgroundBlur_3136_9417" result="shape"/></filter><filter id="f" width="63.468" height="50.608" x="43.725" y="40.62" color-interpolation-filters="sRGB" filterUnits="userSpaceOnUse"><feFlood flood-opacity="0" result="BackgroundImageFix"/><feGaussianBlur in="BackgroundImageFix" stdDeviation="7.5"/><feComposite in2="SourceAlpha" operator="in" result="effect1_backgroundBlur_3136_9417"/><feColorMatrix in="SourceAlpha" result="hardAlpha" values="0 0 0 0 0 0 0 0 0 0 0 0 0 0 0 0 0 0 127 0"/><feOffset dx="5" dy="5"/><feGaussianBlur stdDeviation="5"/><feColorMatrix values="0 0 0 0 0.454902 0 0 0 0 0.870588 0 0 0 0 0.376471 0 0 0 0.5 0"/><feBlend in2="effect1_backgroundBlur_3136_9417" result="effect2_dropShadow_3136_9417"/><feBlend in="SourceGraphic" in2="effect2_dropShadow_3136_9417" result="shape"/></filter></defs></svg>