<svg xmlns="http://www.w3.org/2000/svg" width="120" height="120" fill="none" viewBox="0 0 120 120"><path fill="url(#a)" d="M93.3 23.694 64.66 16.019c-11.2-3-20.838 2.843-23.972 14.538l-7.231 26.99c-3.125 11.661 2.3 21.542 13.5 24.543l28.64 7.674c11.2 3 20.805-2.852 23.93-14.514l7.232-26.99c3.134-11.694-2.259-21.566-13.458-24.566"/><g filter="url(#b)" opacity=".5"><rect width="47.848" height="47.664" x="40.115" y="68.196" fill="#8237FF" rx="10.962" transform="rotate(-72.489 40.115 68.196)"/></g><g filter="url(#c)"><mask id="e" width="82" height="82" x="10" y="27.635" fill="#000" maskUnits="userSpaceOnUse"><path fill="#fff" d="M10 27.635h82v82H10z"/><path d="M67.887 29.635h-33.79C20.887 29.635 12 38.91 12 52.707v31.84c0 13.758 8.886 23.034 22.098 23.034h33.79c13.21 0 22.058-9.276 22.058-23.033V52.707c0-13.797-8.847-23.072-22.059-23.072"/></mask><path fill="#BA90FF" fill-opacity=".35" d="M67.887 29.635h-33.79C20.887 29.635 12 38.91 12 52.707v31.84c0 13.758 8.886 23.034 22.098 23.034h33.79c13.21 0 22.058-9.276 22.058-23.033V52.707c0-13.797-8.847-23.072-22.059-23.072"/><path fill="url(#d)" d="M67.887 30.73a1.096 1.096 0 1 0 0-2.191zm0-2.191a1.096 1.096 0 0 0 0 2.192zm0 0h-33.79v2.192h33.79zm-33.79 0c-6.871 0-12.693 2.418-16.794 6.7-4.098 4.278-6.4 10.332-6.4 17.468h2.193c0-6.66 2.142-12.143 5.79-15.952 3.645-3.805 8.872-6.024 15.212-6.024zM10.905 52.707v31.84h2.192v-31.84zm0 31.84c0 7.118 2.302 13.162 6.4 17.435 4.1 4.276 9.922 6.695 16.794 6.695v-2.193c-6.34 0-11.568-2.219-15.212-6.02-3.649-3.804-5.79-9.276-5.79-15.916zm23.194 24.13h33.79v-2.193h-33.79zm33.79 0c6.871 0 12.683-2.419 16.775-6.696 4.088-4.273 6.379-10.318 6.379-17.433H88.85c0 6.641-2.132 12.113-5.771 15.917-3.635 3.8-8.852 6.019-15.192 6.019zm23.154-24.13v-31.84H88.85v31.84zm0-31.84c0-7.135-2.291-13.189-6.379-17.467-4.091-4.283-9.904-6.701-16.776-6.701v2.192c6.34 0 11.557 2.22 15.191 6.023 3.64 3.809 5.772 9.29 5.772 15.953z" mask="url(#e)"/></g><g filter="url(#f)"><path fill="url(#g)" d="M39.643 90.7a11.198 11.198 0 0 1-7.92-19.116L54.95 48.355a11.197 11.197 0 0 1 19.21 7.89 11.2 11.2 0 0 1-3.373 7.945L47.557 87.42a11.13 11.13 0 0 1-7.914 3.28m23.228-43a8.55 8.55 0 0 0-6.065 2.508l-23.228 23.23c-3.345 3.344-3.345 8.785 0 12.13 3.344 3.344 8.785 3.344 12.13 0l23.229-23.23c3.344-3.344 3.344-8.785 0-12.13a8.55 8.55 0 0 0-6.068-2.508zm.418 43a11.13 11.13 0 0 1-7.919-3.28l-1.5-1.5a1.31 1.31 0 0 1 1.854-1.852l1.5 1.5a8.587 8.587 0 0 0 12.13 0c3.344-3.345 3.344-8.786 0-12.13l-1.351-1.352a1.31 1.31 0 1 1 1.853-1.853l1.351 1.351c4.366 4.366 4.366 11.47 0 15.837a11.13 11.13 0 0 1-7.918 3.28m-28.94-24.843a1.3 1.3 0 0 1-.926-.384l-1.281-1.283c-4.366-4.367-4.366-11.47 0-15.837s11.47-4.366 15.836 0l1.43 1.43a1.31 1.31 0 1 1-1.851 1.855l-1.43-1.43c-3.344-3.344-8.786-3.344-12.13 0-3.344 3.345-3.344 8.786 0 12.13l1.281 1.283a1.31 1.31 0 0 1-.929 2.236"/><path stroke="url(#h)" stroke-width=".215" d="M62.87 47.593a8.65 8.65 0 0 0-6.14 2.54zm0 0a8.66 8.66 0 0 1 6.143 2.54c3.386 3.386 3.386 8.895 0 12.281l-23.23 23.23c-3.386 3.386-8.895 3.386-12.281 0s-3.387-8.896 0-12.283L56.73 50.133l6.142-2.433v-.107zM34.35 65.75a1.203 1.203 0 0 0 .854-2.053m-.854 2.053 11.778-15.541c-3.344-3.345-8.786-3.345-12.13 0-3.344 3.344-3.344 8.785 0 12.13l1.281 1.282-.076.075m-.853 2.054a1.2 1.2 0 0 1-.85-.352l-1.282-1.284c-4.323-4.325-4.323-11.36 0-15.685 4.324-4.324 11.36-4.324 15.685 0l1.43 1.43a1.203 1.203 0 1 1-1.7 1.703M34.35 65.75l13.284-14.188m-12.43 12.135-1.282-1.283c-3.386-3.386-3.386-8.895 0-12.281s8.896-3.387 12.282 0l1.43 1.43m-12.43 12.133 12.43-12.134m-7.99 39.031a11.091 11.091 0 0 1-7.845-18.933L55.027 48.43a11.091 11.091 0 1 1 15.686 15.682h-.001L47.48 87.346a11.02 11.02 0 0 1-7.838 3.248Zm15.804-3.248-1.5-1.5a1.203 1.203 0 0 1 1.701-1.7l1.5 1.498a8.694 8.694 0 0 0 12.282 0c3.386-3.386 3.386-8.895 0-12.282l-1.352-1.35a1.203 1.203 0 1 1 1.702-1.702l1.351 1.35c4.324 4.325 4.324 11.361 0 15.686a11.02 11.02 0 0 1-7.842 3.248 11.02 11.02 0 0 1-7.843-3.248Z"/></g><g filter="url(#i)"><path fill="url(#j)" d="M51.125 82.01a4.43 4.43 0 0 1-3.15-1.305l-9.538-9.538a4.46 4.46 0 0 1 0-6.3l9.796-9.797a4.455 4.455 0 0 1 6.3 0l9.54 9.54a4.46 4.46 0 0 1 0 6.3l-9.798 9.794a4.43 4.43 0 0 1-3.15 1.306m.257-25.622a1.82 1.82 0 0 0-1.297.538l-9.793 9.794a1.833 1.833 0 0 0 0 2.595l9.536 9.539a1.836 1.836 0 0 0 2.594 0l9.795-9.798a1.837 1.837 0 0 0 0-2.595l-9.539-9.535a1.82 1.82 0 0 0-1.296-.538"/><path stroke="url(#k)" stroke-width=".215" d="M51.125 81.903a4.32 4.32 0 0 0 3.074-1.275l9.798-9.794zm0 0a4.32 4.32 0 0 1-3.074-1.274m3.073 1.273-3.073-1.273m0 0-9.538-9.537m9.538 9.537-9.538-9.537m12.87-14.811a1.93 1.93 0 0 0-1.374.569l-9.793 9.794a1.94 1.94 0 0 0 0 2.747l9.536 9.539.076-.076-.076.076a1.94 1.94 0 0 0 2.746 0l-.076-.076.076.076 9.795-9.798a1.944 1.944 0 0 0 0-2.746l-9.539-9.536a1.93 1.93 0 0 0-1.372-.57Zm0 0h-.001v.107-.107Zm-12.87 14.81a4.353 4.353 0 0 1 0-6.148l9.796-9.797a4.346 4.346 0 0 1 6.149 0l9.539 9.539a4.353 4.353 0 0 1 0 6.149z"/></g><g filter="url(#l)"><mask id="o" fill="#fff"><path d="M54.933 65.527h-.065l-.064-.005a1.3 1.3 0 0 1-.599-.214 1.2 1.2 0 0 1-.363-.364 1.4 1.4 0 0 1-.195-.471 1 1 0 0 1-.02-.127q-.001-.033-.004-.065v-.129q0-.032.004-.064a1.32 1.32 0 0 1 .378-.8l.046-.044q.024-.023.05-.042.049-.04.105-.076.054-.036.11-.066a1 1 0 0 1 .116-.053q.06-.022.12-.043a1.3 1.3 0 0 1 .252-.05c.021 0 .043-.005.064-.006a1 1 0 0 1 .13 0q.03 0 .064.006a1.3 1.3 0 0 1 .372.093q.06.026.116.053.056.03.11.066a2 2 0 0 1 .153.118 1 1 0 0 1 .092.092l.042.048q.04.05.076.105t.066.11a1 1 0 0 1 .053.117q.022.06.043.12a1.3 1.3 0 0 1 .05.252q.002.032.006.064v.129q-.002.033-.006.064a1.3 1.3 0 0 1-.146.489q-.029.056-.066.11a2 2 0 0 1-.118.154l-.044.047-.048.044-.048.042a1.3 1.3 0 0 1-.702.291l-.065.005zm-3.66 3.66h-.065l-.064-.004a1.6 1.6 0 0 1-.252-.051 1 1 0 0 1-.12-.044l-.117-.052c-.038-.018-.074-.043-.11-.066a2 2 0 0 1-.154-.118l-.047-.045a1.32 1.32 0 0 1-.383-.926v-.065q0-.032.004-.064a1.3 1.3 0 0 1 .095-.372q.024-.06.052-.116c.018-.037.043-.075.066-.11a2 2 0 0 1 .118-.154 1.2 1.2 0 0 1 .245-.21q.056-.036.11-.066a1 1 0 0 1 .117-.053q.06-.022.12-.043a1.3 1.3 0 0 1 .637-.031 1.2 1.2 0 0 1 .245.075q.06.025.116.052a1.715 1.715 0 0 1 .264.184l.047.044.045.048a1.3 1.3 0 0 1 .236.38q.022.06.043.12a1.3 1.3 0 0 1 .056.38v.065a1.337 1.337 0 0 1-.099.437q-.025.059-.052.115a1 1 0 0 1-.066.111c-.023.036-.052.07-.077.105a1.26 1.26 0 0 1-.513.377 1.3 1.3 0 0 1-.372.094l-.065.005zm-3.66 3.66h-.065l-.065-.004a1.5 1.5 0 0 1-.251-.05 1.4 1.4 0 0 1-.548-.325l-.044-.047q-.022-.024-.043-.05a1.611 1.611 0 0 1-.142-.215 1 1 0 0 1-.052-.115q-.023-.06-.044-.121a1.3 1.3 0 0 1-.055-.38v-.065q0-.032.005-.064a1.5 1.5 0 0 1 .05-.252 1.4 1.4 0 0 1 .096-.237c.018-.038.043-.074.066-.11a2 2 0 0 1 .119-.154l.044-.047q.022-.023.047-.044a1.3 1.3 0 0 1 .38-.237 1.4 1.4 0 0 1 .372-.093l.065-.005h.128l.065.005a1.3 1.3 0 0 1 .372.093q.06.026.117.053c.037.017.074.042.11.065q.053.036.104.077l.05.042.046.044a1.2 1.2 0 0 1 .229.311q.03.057.052.116a1.2 1.2 0 0 1 .075.245 1.3 1.3 0 0 1 .024.257v.064a1.3 1.3 0 0 1-.099.436l-.052.116a1.242 1.242 0 0 1-.43.474q-.054.036-.11.066a1 1 0 0 1-.116.053q-.06.022-.12.043a1.3 1.3 0 0 1-.252.051l-.065.005zm3.834-10.806h-.064l-.064-.005a1.3 1.3 0 0 1-.373-.094q-.06-.025-.116-.053a1.523 1.523 0 0 1-.264-.184 1 1 0 0 1-.09-.091q-.023-.024-.043-.049a1.2 1.2 0 0 1-.142-.215 1 1 0 0 1-.053-.116q-.022-.06-.043-.12a1.3 1.3 0 0 1-.055-.317v-.129q0-.032.005-.064a1.3 1.3 0 0 1 .093-.372q.026-.06.053-.116a1.19 1.19 0 0 1 .23-.311q.022-.023.045-.045.024-.022.05-.042a1.3 1.3 0 0 1 .703-.289q.03-.001.064-.004h.129q.032 0 .064.004a1.5 1.5 0 0 1 .252.051q.06.019.12.044t.116.052q.057.029.11.066c.036.023.071.052.105.076a2 2 0 0 1 .096.086 1.3 1.3 0 0 1 .228.312q.03.056.053.116a1.2 1.2 0 0 1 .074.245 1.2 1.2 0 0 1 .024.256v.064a1.21 1.21 0 0 1-.056.316q-.018.062-.042.12a1.2 1.2 0 0 1-.118.227 1 1 0 0 1-.119.154l-.044.047-.047.044q-.024.023-.049.042a1.2 1.2 0 0 1-.33.19q-.06.021-.122.043a1.3 1.3 0 0 1-.316.055c-.02.001-.043.006-.065.006m-3.66 3.66h-.065q-.033 0-.064-.005a1.3 1.3 0 0 1-.372-.094l-.117-.052c-.037-.018-.074-.043-.11-.066a1.254 1.254 0 0 1-.287-.258 1.35 1.35 0 0 1-.291-.702 1 1 0 0 1-.005-.13v-.064q0-.032.005-.064a1.34 1.34 0 0 1 .29-.704l.043-.049.044-.046.047-.045.05-.042a1.2 1.2 0 0 1 .214-.142 1.3 1.3 0 0 1 .489-.149q.031-.001.064-.005h.13l.064.005a1.3 1.3 0 0 1 .488.149 1.3 1.3 0 0 1 .214.142l.05.042.046.045.044.046a1.3 1.3 0 0 1 .237.38q.023.06.044.121a1.3 1.3 0 0 1 .055.316v.13q-.001.03-.005.064a1.3 1.3 0 0 1-.094.372q-.024.06-.052.116a1.771 1.771 0 0 1-.184.264l-.045.046q-.022.023-.047.044-.024.023-.049.043a1.2 1.2 0 0 1-.215.142 1 1 0 0 1-.115.052q-.06.024-.12.044a1.3 1.3 0 0 1-.317.055zm-3.66 3.66h-.065q-.032 0-.065-.004a1.3 1.3 0 0 1-.372-.094l-.116-.053a1.805 1.805 0 0 1-.215-.142 1 1 0 0 1-.14-.133l-.043-.05a1.3 1.3 0 0 1-.197-.33 1.4 1.4 0 0 1-.093-.373q-.002-.03-.005-.063v-.13q0-.032.005-.064a1.3 1.3 0 0 1 .214-.598 2 2 0 0 1 .118-.154 1.3 1.3 0 0 1 .593-.374 1.5 1.5 0 0 1 .251-.05l.065-.005q.065-.003.129 0l.064.005a1.33 1.33 0 0 1 .703.291 1 1 0 0 1 .14.133q.024.025.043.049a1.3 1.3 0 0 1 .27.576q.012.064.019.127.001.032.004.064v.13q.001.032-.004.064a1.324 1.324 0 0 1-.094.373l-.053.115a1.2 1.2 0 0 1-.142.215l-.042.049-.045.046-.047.045-.048.042a1 1 0 0 1-.105.076 2 2 0 0 1-.11.066 1 1 0 0 1-.117.053q-.06.022-.12.043a1.3 1.3 0 0 1-.252.05c-.021 0-.043.005-.064.006zm14.292-.35h-.066l-.064-.005a1.3 1.3 0 0 1-.489-.146q-.056-.028-.11-.066a1.2 1.2 0 0 1-.245-.21q-.022-.023-.042-.048a1.2 1.2 0 0 1-.142-.215 1.4 1.4 0 0 1-.098-.237 1.3 1.3 0 0 1-.05-.252c0-.02-.005-.043-.005-.063q-.002-.033 0-.066v-.064q0-.032.004-.064a1.32 1.32 0 0 1 .378-.799l.046-.044a1.3 1.3 0 0 1 .753-.33l.064-.006h.13l.064.005a1.2 1.2 0 0 1 .251.05q.062.02.12.044.06.025.117.052a1.773 1.773 0 0 1 .264.184 1 1 0 0 1 .091.092l.042.049a1.3 1.3 0 0 1 .195.33q.022.06.043.121a1.3 1.3 0 0 1 .05.252c0 .021.005.043.006.064v.13q-.001.032-.005.063a1.3 1.3 0 0 1-.094.373q-.025.06-.053.116c-.017.038-.042.075-.065.11q-.035.052-.077.105l-.041.049a1 1 0 0 1-.092.09q-.024.023-.049.043a1.3 1.3 0 0 1-.331.195q-.06.022-.12.043a1.3 1.3 0 0 1-.252.05l-.065.006zm-3.66 3.662h-.065l-.065-.005a1.3 1.3 0 0 1-.487-.148 1.4 1.4 0 0 1-.312-.229l-.044-.047q-.023-.023-.042-.048a1.49 1.49 0 0 1-.142-.215 1 1 0 0 1-.053-.117 1.2 1.2 0 0 1-.075-.244 2 2 0 0 1-.024-.192v-.129q0-.033.005-.065.006-.063.02-.126.024-.127.074-.246l.053-.115a1.805 1.805 0 0 1 .184-.264 1 1 0 0 1 .091-.092q.024-.022.05-.042.048-.041.104-.076.055-.036.11-.066a1 1 0 0 1 .116-.053q.06-.022.12-.043a1.3 1.3 0 0 1 .252-.05c.022 0 .043-.005.065-.006h.13q.03.001.063.005a1.3 1.3 0 0 1 .372.094q.06.026.117.053.056.029.11.066a2 2 0 0 1 .154.118l.047.044.044.047q.022.024.042.05a1.2 1.2 0 0 1 .194.33l.044.12a1.3 1.3 0 0 1 .055.381v.065a1.305 1.305 0 0 1-.099.437q-.025.059-.052.116c-.017.038-.042.074-.065.11-.024.035-.053.07-.077.105a2 2 0 0 1-.086.095 1.2 1.2 0 0 1-.311.229 1.3 1.3 0 0 1-.489.148q-.031.002-.064.005zm-3.661 3.66h-.065q-.032.001-.064-.005a1.3 1.3 0 0 1-.488-.146 1.805 1.805 0 0 1-.264-.184l-.047-.044a1 1 0 0 1-.087-.096 1 1 0 0 1-.076-.105l-.066-.11a1 1 0 0 1-.052-.117q-.023-.06-.044-.12a1.3 1.3 0 0 1-.055-.316v-.129q-.001-.033.005-.064a1.3 1.3 0 0 1 .094-.373q.025-.059.052-.115a1.805 1.805 0 0 1 .184-.264l.045-.048q.021-.023.047-.044a1.3 1.3 0 0 1 .38-.237q.06-.022.12-.043a1.3 1.3 0 0 1 .316-.056h.13q.031-.001.064.005a1.3 1.3 0 0 1 .372.094q.06.025.116.053a1.773 1.773 0 0 1 .215.142l.05.042.046.044.045.047.042.05a1.3 1.3 0 0 1 .194.33 1.2 1.2 0 0 1 .075.246 1.3 1.3 0 0 1 .024.255v.065q.001.031-.005.064a1.3 1.3 0 0 1-.094.372q-.025.06-.052.117-.028.056-.066.11a1.3 1.3 0 0 1-.163.2l-.047.045-.049.042a1 1 0 0 1-.105.076q-.054.036-.11.066a1 1 0 0 1-.116.052q-.06.024-.12.044a1.3 1.3 0 0 1-.252.05q-.032.001-.065.006z"/></mask><path fill="url(#m)" d="M54.933 65.527h-.065l-.064-.005a1.3 1.3 0 0 1-.599-.214 1.2 1.2 0 0 1-.363-.364 1.4 1.4 0 0 1-.195-.471 1 1 0 0 1-.02-.127q-.001-.033-.004-.065v-.129q0-.032.004-.064a1.32 1.32 0 0 1 .378-.8l.046-.044q.024-.023.05-.042.049-.04.105-.076.054-.036.11-.066a1 1 0 0 1 .116-.053q.06-.022.12-.043a1.3 1.3 0 0 1 .252-.05c.021 0 .043-.005.064-.006a1 1 0 0 1 .13 0q.03 0 .064.006a1.3 1.3 0 0 1 .372.093q.06.026.116.053.056.03.11.066a2 2 0 0 1 .153.118 1 1 0 0 1 .092.092l.042.048q.04.05.076.105t.066.11a1 1 0 0 1 .053.117q.022.06.043.12a1.3 1.3 0 0 1 .05.252q.002.032.006.064v.129q-.002.033-.006.064a1.3 1.3 0 0 1-.146.489q-.029.056-.066.11a2 2 0 0 1-.118.154l-.044.047-.048.044-.048.042a1.3 1.3 0 0 1-.702.291l-.065.005zm-3.66 3.66h-.065l-.064-.004a1.6 1.6 0 0 1-.252-.051 1 1 0 0 1-.12-.044l-.117-.052c-.038-.018-.074-.043-.11-.066a2 2 0 0 1-.154-.118l-.047-.045a1.32 1.32 0 0 1-.383-.926v-.065q0-.032.004-.064a1.3 1.3 0 0 1 .095-.372q.024-.06.052-.116c.018-.037.043-.075.066-.11a2 2 0 0 1 .118-.154 1.2 1.2 0 0 1 .245-.21q.056-.036.11-.066a1 1 0 0 1 .117-.053q.06-.022.12-.043a1.3 1.3 0 0 1 .637-.031 1.2 1.2 0 0 1 .245.075q.06.025.116.052a1.715 1.715 0 0 1 .264.184l.047.044.045.048a1.3 1.3 0 0 1 .236.38q.022.06.043.12a1.3 1.3 0 0 1 .056.38v.065a1.337 1.337 0 0 1-.099.437q-.025.059-.052.115a1 1 0 0 1-.066.111c-.023.036-.052.07-.077.105a1.26 1.26 0 0 1-.513.377 1.3 1.3 0 0 1-.372.094l-.065.005zm-3.66 3.66h-.065l-.065-.004a1.5 1.5 0 0 1-.251-.05 1.4 1.4 0 0 1-.548-.325l-.044-.047q-.022-.024-.043-.05a1.611 1.611 0 0 1-.142-.215 1 1 0 0 1-.052-.115q-.023-.06-.044-.121a1.3 1.3 0 0 1-.055-.38v-.065q0-.032.005-.064a1.5 1.5 0 0 1 .05-.252 1.4 1.4 0 0 1 .096-.237c.018-.038.043-.074.066-.11a2 2 0 0 1 .119-.154l.044-.047q.022-.023.047-.044a1.3 1.3 0 0 1 .38-.237 1.4 1.4 0 0 1 .372-.093l.065-.005h.128l.065.005a1.3 1.3 0 0 1 .372.093q.06.026.117.053c.037.017.074.042.11.065q.053.036.104.077l.05.042.046.044a1.2 1.2 0 0 1 .229.311q.03.057.052.116a1.2 1.2 0 0 1 .075.245 1.3 1.3 0 0 1 .024.257v.064a1.3 1.3 0 0 1-.099.436l-.052.116a1.242 1.242 0 0 1-.43.474q-.054.036-.11.066a1 1 0 0 1-.116.053q-.06.022-.12.043a1.3 1.3 0 0 1-.252.051l-.065.005zm3.834-10.806h-.064l-.064-.005a1.3 1.3 0 0 1-.373-.094q-.06-.025-.116-.053a1.523 1.523 0 0 1-.264-.184 1 1 0 0 1-.09-.091q-.023-.024-.043-.049a1.2 1.2 0 0 1-.142-.215 1 1 0 0 1-.053-.116q-.022-.06-.043-.12a1.3 1.3 0 0 1-.055-.317v-.129q0-.032.005-.064a1.3 1.3 0 0 1 .093-.372q.026-.06.053-.116a1.19 1.19 0 0 1 .23-.311q.022-.023.045-.045.024-.022.05-.042a1.3 1.3 0 0 1 .703-.289q.03-.001.064-.004h.129q.032 0 .064.004a1.5 1.5 0 0 1 .252.051q.06.019.12.044t.116.052q.057.029.11.066c.036.023.071.052.105.076a2 2 0 0 1 .096.086 1.3 1.3 0 0 1 .228.312q.03.056.053.116a1.2 1.2 0 0 1 .074.245 1.2 1.2 0 0 1 .024.256v.064a1.21 1.21 0 0 1-.056.316q-.018.062-.042.12a1.2 1.2 0 0 1-.118.227 1 1 0 0 1-.119.154l-.044.047-.047.044q-.024.023-.049.042a1.2 1.2 0 0 1-.33.19q-.06.021-.122.043a1.3 1.3 0 0 1-.316.055c-.02.001-.043.006-.065.006m-3.66 3.66h-.065q-.033 0-.064-.005a1.3 1.3 0 0 1-.372-.094l-.117-.052c-.037-.018-.074-.043-.11-.066a1.254 1.254 0 0 1-.287-.258 1.35 1.35 0 0 1-.291-.702 1 1 0 0 1-.005-.13v-.064q0-.032.005-.064a1.34 1.34 0 0 1 .29-.704l.043-.049.044-.046.047-.045.05-.042a1.2 1.2 0 0 1 .214-.142 1.3 1.3 0 0 1 .489-.149q.031-.001.064-.005h.13l.064.005a1.3 1.3 0 0 1 .488.149 1.3 1.3 0 0 1 .214.142l.05.042.046.045.044.046a1.3 1.3 0 0 1 .237.38q.023.06.044.121a1.3 1.3 0 0 1 .055.316v.13q-.001.03-.005.064a1.3 1.3 0 0 1-.094.372q-.024.06-.052.116a1.771 1.771 0 0 1-.184.264l-.045.046q-.022.023-.047.044-.024.023-.049.043a1.2 1.2 0 0 1-.215.142 1 1 0 0 1-.115.052q-.06.024-.12.044a1.3 1.3 0 0 1-.317.055zm-3.66 3.66h-.065q-.032 0-.065-.004a1.3 1.3 0 0 1-.372-.094l-.116-.053a1.805 1.805 0 0 1-.215-.142 1 1 0 0 1-.14-.133l-.043-.05a1.3 1.3 0 0 1-.197-.33 1.4 1.4 0 0 1-.093-.373q-.002-.03-.005-.063v-.13q0-.032.005-.064a1.3 1.3 0 0 1 .214-.598 2 2 0 0 1 .118-.154 1.3 1.3 0 0 1 .593-.374 1.5 1.5 0 0 1 .251-.05l.065-.005q.065-.003.129 0l.064.005a1.33 1.33 0 0 1 .703.291 1 1 0 0 1 .14.133q.024.025.043.049a1.3 1.3 0 0 1 .27.576q.012.064.019.127.001.032.004.064v.13q.001.032-.004.064a1.324 1.324 0 0 1-.094.373l-.053.115a1.2 1.2 0 0 1-.142.215l-.042.049-.045.046-.047.045-.048.042a1 1 0 0 1-.105.076 2 2 0 0 1-.11.066 1 1 0 0 1-.117.053q-.06.022-.12.043a1.3 1.3 0 0 1-.252.05c-.021 0-.043.005-.064.006zm14.292-.35h-.066l-.064-.005a1.3 1.3 0 0 1-.489-.146q-.056-.028-.11-.066a1.2 1.2 0 0 1-.245-.21q-.022-.023-.042-.048a1.2 1.2 0 0 1-.142-.215 1.4 1.4 0 0 1-.098-.237 1.3 1.3 0 0 1-.05-.252c0-.02-.005-.043-.005-.063q-.002-.033 0-.066v-.064q0-.032.004-.064a1.32 1.32 0 0 1 .378-.799l.046-.044a1.3 1.3 0 0 1 .753-.33l.064-.006h.13l.064.005a1.2 1.2 0 0 1 .251.05q.062.02.12.044.06.025.117.052a1.773 1.773 0 0 1 .264.184 1 1 0 0 1 .091.092l.042.049a1.3 1.3 0 0 1 .195.33q.022.06.043.121a1.3 1.3 0 0 1 .05.252c0 .021.005.043.006.064v.13q-.001.032-.005.063a1.3 1.3 0 0 1-.094.373q-.025.06-.053.116c-.017.038-.042.075-.065.11q-.035.052-.077.105l-.041.049a1 1 0 0 1-.092.09q-.024.023-.049.043a1.3 1.3 0 0 1-.331.195q-.06.022-.12.043a1.3 1.3 0 0 1-.252.05l-.065.006zm-3.66 3.662h-.065l-.065-.005a1.3 1.3 0 0 1-.487-.148 1.4 1.4 0 0 1-.312-.229l-.044-.047q-.023-.023-.042-.048a1.49 1.49 0 0 1-.142-.215 1 1 0 0 1-.053-.117 1.2 1.2 0 0 1-.075-.244 2 2 0 0 1-.024-.192v-.129q0-.033.005-.065.006-.063.02-.126.024-.127.074-.246l.053-.115a1.805 1.805 0 0 1 .184-.264 1 1 0 0 1 .091-.092q.024-.022.05-.042.048-.041.104-.076.055-.036.11-.066a1 1 0 0 1 .116-.053q.06-.022.12-.043a1.3 1.3 0 0 1 .252-.05c.022 0 .043-.005.065-.006h.13q.03.001.063.005a1.3 1.3 0 0 1 .372.094q.06.026.117.053.056.029.11.066a2 2 0 0 1 .154.118l.047.044.044.047q.022.024.042.05a1.2 1.2 0 0 1 .194.33l.044.12a1.3 1.3 0 0 1 .055.381v.065a1.305 1.305 0 0 1-.099.437q-.025.059-.052.116c-.017.038-.042.074-.065.11-.024.035-.053.07-.077.105a2 2 0 0 1-.086.095 1.2 1.2 0 0 1-.311.229 1.3 1.3 0 0 1-.489.148q-.031.002-.064.005zm-3.661 3.66h-.065q-.032.001-.064-.005a1.3 1.3 0 0 1-.488-.146 1.805 1.805 0 0 1-.264-.184l-.047-.044a1 1 0 0 1-.087-.096 1 1 0 0 1-.076-.105l-.066-.11a1 1 0 0 1-.052-.117q-.023-.06-.044-.12a1.3 1.3 0 0 1-.055-.316v-.129q-.001-.033.005-.064a1.3 1.3 0 0 1 .094-.373q.025-.059.052-.115a1.805 1.805 0 0 1 .184-.264l.045-.048q.021-.023.047-.044a1.3 1.3 0 0 1 .38-.237q.06-.022.12-.043a1.3 1.3 0 0 1 .316-.056h.13q.031-.001.064.005a1.3 1.3 0 0 1 .372.094q.06.025.116.053a1.773 1.773 0 0 1 .215.142l.05.042.046.044.045.047.042.05a1.3 1.3 0 0 1 .194.33 1.2 1.2 0 0 1 .075.246 1.3 1.3 0 0 1 .024.255v.065q.001.031-.005.064a1.3 1.3 0 0 1-.094.372q-.025.06-.052.117-.028.056-.066.11a1.3 1.3 0 0 1-.163.2l-.047.045-.049.042a1 1 0 0 1-.105.076q-.054.036-.11.066a1 1 0 0 1-.116.052q-.06.024-.12.044a1.3 1.3 0 0 1-.252.05q-.032.001-.065.006z"/><path stroke="url(#n)" stroke-width=".767" d="M54.933 65.527h-.065l-.064-.005a1.3 1.3 0 0 1-.599-.214 1.2 1.2 0 0 1-.363-.364 1.4 1.4 0 0 1-.195-.471 1 1 0 0 1-.02-.127q-.001-.033-.004-.065v-.129q0-.032.004-.064a1.32 1.32 0 0 1 .378-.8l.046-.044q.024-.023.05-.042.049-.04.105-.076.054-.036.11-.066a1 1 0 0 1 .116-.053q.06-.022.12-.043a1.3 1.3 0 0 1 .252-.05c.021 0 .043-.005.064-.006a1 1 0 0 1 .13 0q.03 0 .064.006a1.3 1.3 0 0 1 .372.093q.06.026.116.053.056.03.11.066a2 2 0 0 1 .153.118 1 1 0 0 1 .092.092l.042.048q.04.05.076.105t.066.11a1 1 0 0 1 .053.117q.022.06.043.12a1.3 1.3 0 0 1 .05.252q.002.032.006.064v.129q-.002.033-.006.064a1.3 1.3 0 0 1-.146.489q-.029.056-.066.11a2 2 0 0 1-.118.154l-.044.047-.048.044-.048.042a1.3 1.3 0 0 1-.702.291l-.065.005zm-3.66 3.66h-.065l-.064-.004a1.6 1.6 0 0 1-.252-.051 1 1 0 0 1-.12-.044l-.117-.052c-.038-.018-.074-.043-.11-.066a2 2 0 0 1-.154-.118l-.047-.045a1.32 1.32 0 0 1-.383-.926v-.065q0-.032.004-.064a1.3 1.3 0 0 1 .095-.372q.024-.06.052-.116c.018-.037.043-.075.066-.11a2 2 0 0 1 .118-.154 1.2 1.2 0 0 1 .245-.21q.056-.036.11-.066a1 1 0 0 1 .117-.053q.06-.022.12-.043a1.3 1.3 0 0 1 .637-.031 1.2 1.2 0 0 1 .245.075q.06.025.116.052a1.715 1.715 0 0 1 .264.184l.047.044.045.048a1.3 1.3 0 0 1 .236.38q.022.06.043.12a1.3 1.3 0 0 1 .056.38v.065a1.337 1.337 0 0 1-.099.437q-.025.059-.052.115a1 1 0 0 1-.066.111c-.023.036-.052.07-.077.105a1.26 1.26 0 0 1-.513.377 1.3 1.3 0 0 1-.372.094l-.065.005zm-3.66 3.66h-.065l-.065-.004a1.5 1.5 0 0 1-.251-.05 1.4 1.4 0 0 1-.548-.325l-.044-.047q-.022-.024-.043-.05a1.611 1.611 0 0 1-.142-.215 1 1 0 0 1-.052-.115q-.023-.06-.044-.121a1.3 1.3 0 0 1-.055-.38v-.065q0-.032.005-.064a1.5 1.5 0 0 1 .05-.252 1.4 1.4 0 0 1 .096-.237c.018-.038.043-.074.066-.11a2 2 0 0 1 .119-.154l.044-.047q.022-.023.047-.044a1.3 1.3 0 0 1 .38-.237 1.4 1.4 0 0 1 .372-.093l.065-.005h.128l.065.005a1.3 1.3 0 0 1 .372.093q.06.026.117.053c.037.017.074.042.11.065q.053.036.104.077l.05.042.046.044a1.2 1.2 0 0 1 .229.311q.03.057.052.116a1.2 1.2 0 0 1 .075.245 1.3 1.3 0 0 1 .024.257v.064a1.3 1.3 0 0 1-.099.436l-.052.116a1.242 1.242 0 0 1-.43.474q-.054.036-.11.066a1 1 0 0 1-.116.053q-.06.022-.12.043a1.3 1.3 0 0 1-.252.051l-.065.005zm3.834-10.806h-.064l-.064-.005a1.3 1.3 0 0 1-.373-.094q-.06-.025-.116-.053a1.523 1.523 0 0 1-.264-.184 1 1 0 0 1-.09-.091q-.023-.024-.043-.049a1.2 1.2 0 0 1-.142-.215 1 1 0 0 1-.053-.116q-.022-.06-.043-.12a1.3 1.3 0 0 1-.055-.317v-.129q0-.032.005-.064a1.3 1.3 0 0 1 .093-.372q.026-.06.053-.116a1.19 1.19 0 0 1 .23-.311q.022-.023.045-.045.024-.022.05-.042a1.3 1.3 0 0 1 .703-.289q.03-.001.064-.004h.129q.032 0 .064.004a1.5 1.5 0 0 1 .252.051q.06.019.12.044t.116.052q.057.029.11.066c.036.023.071.052.105.076a2 2 0 0 1 .096.086 1.3 1.3 0 0 1 .228.312q.03.056.053.116a1.2 1.2 0 0 1 .074.245 1.2 1.2 0 0 1 .024.256v.064a1.21 1.21 0 0 1-.056.316q-.018.062-.042.12a1.2 1.2 0 0 1-.118.227 1 1 0 0 1-.119.154l-.044.047-.047.044q-.024.023-.049.042a1.2 1.2 0 0 1-.33.19q-.06.021-.122.043a1.3 1.3 0 0 1-.316.055c-.02.001-.043.006-.065.006Zm-3.66 3.66h-.065q-.033 0-.064-.005a1.3 1.3 0 0 1-.372-.094l-.117-.052c-.037-.018-.074-.043-.11-.066a1.254 1.254 0 0 1-.287-.258 1.35 1.35 0 0 1-.291-.702 1 1 0 0 1-.005-.13v-.064q0-.032.005-.064a1.34 1.34 0 0 1 .29-.704l.043-.049.044-.046.047-.045.05-.042a1.2 1.2 0 0 1 .214-.142 1.3 1.3 0 0 1 .489-.149q.031-.001.064-.005h.13l.064.005a1.3 1.3 0 0 1 .488.149 1.3 1.3 0 0 1 .214.142l.05.042.046.045.044.046a1.3 1.3 0 0 1 .237.38q.023.06.044.121a1.3 1.3 0 0 1 .055.316v.13q-.001.03-.005.064a1.3 1.3 0 0 1-.094.372q-.024.06-.052.116a1.771 1.771 0 0 1-.184.264l-.045.046q-.022.023-.047.044-.024.023-.049.043a1.2 1.2 0 0 1-.215.142 1 1 0 0 1-.115.052q-.06.024-.12.044a1.3 1.3 0 0 1-.317.055zm-3.66 3.66h-.065q-.032 0-.065-.004a1.3 1.3 0 0 1-.372-.094l-.116-.053a1.805 1.805 0 0 1-.215-.142 1 1 0 0 1-.14-.133l-.043-.05a1.3 1.3 0 0 1-.197-.33 1.4 1.4 0 0 1-.093-.373q-.002-.03-.005-.063v-.13q0-.032.005-.064a1.3 1.3 0 0 1 .214-.598 2 2 0 0 1 .118-.154 1.3 1.3 0 0 1 .593-.374 1.5 1.5 0 0 1 .251-.05l.065-.005q.065-.003.129 0l.064.005a1.33 1.33 0 0 1 .703.291 1 1 0 0 1 .14.133q.024.025.043.049a1.3 1.3 0 0 1 .27.576q.012.064.019.127.001.032.004.064v.13q.001.032-.004.064a1.324 1.324 0 0 1-.094.373l-.053.115a1.2 1.2 0 0 1-.142.215l-.042.049-.045.046-.047.045-.048.042a1 1 0 0 1-.105.076 2 2 0 0 1-.11.066 1 1 0 0 1-.117.053q-.06.022-.12.043a1.3 1.3 0 0 1-.252.05c-.021 0-.043.005-.064.006zm14.292-.35h-.066l-.064-.005a1.3 1.3 0 0 1-.489-.146q-.056-.028-.11-.066a1.2 1.2 0 0 1-.245-.21q-.022-.023-.042-.048a1.2 1.2 0 0 1-.142-.215 1.4 1.4 0 0 1-.098-.237 1.3 1.3 0 0 1-.05-.252c0-.02-.005-.043-.005-.063q-.002-.033 0-.066v-.064q0-.032.004-.064a1.32 1.32 0 0 1 .378-.799l.046-.044a1.3 1.3 0 0 1 .753-.33l.064-.006h.13l.064.005a1.2 1.2 0 0 1 .251.05q.062.02.12.044.06.025.117.052a1.773 1.773 0 0 1 .264.184 1 1 0 0 1 .091.092l.042.049a1.3 1.3 0 0 1 .195.33q.022.06.043.121a1.3 1.3 0 0 1 .05.252c0 .021.005.043.006.064v.13q-.001.032-.005.063a1.3 1.3 0 0 1-.094.373q-.025.06-.053.116c-.017.038-.042.075-.065.11q-.035.052-.077.105l-.041.049a1 1 0 0 1-.092.09q-.024.023-.049.043a1.3 1.3 0 0 1-.331.195q-.06.022-.12.043a1.3 1.3 0 0 1-.252.05l-.065.006zm-3.66 3.662h-.065l-.065-.005a1.3 1.3 0 0 1-.487-.148 1.4 1.4 0 0 1-.312-.229l-.044-.047q-.023-.023-.042-.048a1.49 1.49 0 0 1-.142-.215 1 1 0 0 1-.053-.117 1.2 1.2 0 0 1-.075-.244 2 2 0 0 1-.024-.192v-.129q0-.033.005-.065.006-.063.02-.126.024-.127.074-.246l.053-.115a1.805 1.805 0 0 1 .184-.264 1 1 0 0 1 .091-.092q.024-.022.05-.042.048-.041.104-.076.055-.036.11-.066a1 1 0 0 1 .116-.053q.06-.022.12-.043a1.3 1.3 0 0 1 .252-.05c.022 0 .043-.005.065-.006h.13q.03.001.063.005a1.3 1.3 0 0 1 .372.094q.06.026.117.053.056.029.11.066a2 2 0 0 1 .154.118l.047.044.044.047q.022.024.042.05a1.2 1.2 0 0 1 .194.33l.044.12a1.3 1.3 0 0 1 .055.381v.065a1.305 1.305 0 0 1-.099.437q-.025.059-.052.116c-.017.038-.042.074-.065.11-.024.035-.053.07-.077.105a2 2 0 0 1-.086.095 1.2 1.2 0 0 1-.311.229 1.3 1.3 0 0 1-.489.148q-.031.002-.064.005zm-3.661 3.66h-.065q-.032.001-.064-.005a1.3 1.3 0 0 1-.488-.146 1.805 1.805 0 0 1-.264-.184l-.047-.044a1 1 0 0 1-.087-.096 1 1 0 0 1-.076-.105l-.066-.11a1 1 0 0 1-.052-.117q-.023-.06-.044-.12a1.3 1.3 0 0 1-.055-.316v-.129q-.001-.033.005-.064a1.3 1.3 0 0 1 .094-.373q.025-.059.052-.115a1.805 1.805 0 0 1 .184-.264l.045-.048q.021-.023.047-.044a1.3 1.3 0 0 1 .38-.237q.06-.022.12-.043a1.3 1.3 0 0 1 .316-.056h.13q.031-.001.064.005a1.3 1.3 0 0 1 .372.094q.06.025.116.053a1.773 1.773 0 0 1 .215.142l.05.042.046.044.045.047.042.05a1.3 1.3 0 0 1 .194.33 1.2 1.2 0 0 1 .075.246 1.3 1.3 0 0 1 .024.255v.065q.001.031-.005.064a1.3 1.3 0 0 1-.094.372q-.025.06-.052.117-.028.056-.066.11a1.3 1.3 0 0 1-.163.2l-.047.045-.049.042a1 1 0 0 1-.105.076q-.054.036-.11.066a1 1 0 0 1-.116.052q-.06.024-.12.044a1.3 1.3 0 0 1-.252.05q-.032.001-.065.006z" mask="url(#o)"/></g><defs><linearGradient id="a" x1="78.963" x2="61.26" y1="19.852" y2="85.922" gradientUnits="userSpaceOnUse"><stop stop-color="#BC94FF"/><stop offset="1" stop-color="#9F66FF"/></linearGradient><linearGradient id="d" x1="24.408" x2="74.129" y1="38.715" y2="100.296" gradientUnits="userSpaceOnUse"><stop stop-color="#fff" stop-opacity=".25"/><stop offset="1" stop-color="#fff" stop-opacity="0"/></linearGradient><linearGradient id="g" x1="71.217" x2="19.935" y1="53.237" y2="54.921" gradientUnits="userSpaceOnUse"><stop stop-color="#fff"/><stop offset="1" stop-color="#fff" stop-opacity=".2"/></linearGradient><linearGradient id="h" x1="35.771" x2="64.892" y1="50.308" y2="86.626" gradientUnits="userSpaceOnUse"><stop stop-color="#fff" stop-opacity=".25"/><stop offset="1" stop-color="#fff" stop-opacity="0"/></linearGradient><linearGradient id="j" x1="63.373" x2="31.915" y1="58.866" y2="59.891" gradientUnits="userSpaceOnUse"><stop stop-color="#fff"/><stop offset="1" stop-color="#fff" stop-opacity=".2"/></linearGradient><linearGradient id="k" x1="41.629" x2="59.647" y1="57.056" y2="79.368" gradientUnits="userSpaceOnUse"><stop stop-color="#fff" stop-opacity=".25"/><stop offset="1" stop-color="#fff" stop-opacity="0"/></linearGradient><linearGradient id="m" x1="58.528" x2="39.69" y1="62.478" y2="63.092" gradientUnits="userSpaceOnUse"><stop stop-color="#fff"/><stop offset="1" stop-color="#fff" stop-opacity=".2"/></linearGradient><linearGradient id="n" x1="45.507" x2="56.294" y1="61.395" y2="74.755" gradientUnits="userSpaceOnUse"><stop stop-color="#fff" stop-opacity=".25"/><stop offset="1" stop-color="#fff" stop-opacity="0"/></linearGradient><filter id="b" width="98.125" height="98.245" x="20.979" y="3.429" color-interpolation-filters="sRGB" filterUnits="userSpaceOnUse"><feFlood flood-opacity="0" result="BackgroundImageFix"/><feBlend in="SourceGraphic" in2="BackgroundImageFix" result="shape"/><feGaussianBlur result="effect1_foregroundBlur_3136_9356" stdDeviation="10.962"/></filter><filter id="c" width="132.754" height="132.754" x="-15.404" y="2.231" color-interpolation-filters="sRGB" filterUnits="userSpaceOnUse"><feFlood flood-opacity="0" result="BackgroundImageFix"/><feGaussianBlur in="BackgroundImageFix" stdDeviation="13.154"/><feComposite in2="SourceAlpha" operator="in" result="effect1_backgroundBlur_3136_9356"/><feBlend in="SourceGraphic" in2="effect1_backgroundBlur_3136_9356" result="shape"/></filter><filter id="f" width="62.14" height="61.82" x="20.392" y="36.931" color-interpolation-filters="sRGB" filterUnits="userSpaceOnUse"><feFlood flood-opacity="0" result="BackgroundImageFix"/><feGaussianBlur in="BackgroundImageFix" stdDeviation="4.025"/><feComposite in2="SourceAlpha" operator="in" result="effect1_backgroundBlur_3136_9356"/><feColorMatrix in="SourceAlpha" result="hardAlpha" values="0 0 0 0 0 0 0 0 0 0 0 0 0 0 0 0 0 0 127 0"/><feOffset dx="2.683" dy="2.683"/><feGaussianBlur stdDeviation="2.683"/><feColorMatrix values="0 0 0 0 0.577356 0 0 0 0 0.359375 0 0 0 0 0.9375 0 0 0 0.5 0"/><feBlend in2="effect1_backgroundBlur_3136_9356" result="effect2_dropShadow_3136_9356"/><feBlend in="SourceGraphic" in2="effect2_dropShadow_3136_9356" result="shape"/></filter><filter id="i" width="44.342" height="44.345" x="29.083" y="45.715" color-interpolation-filters="sRGB" filterUnits="userSpaceOnUse"><feFlood flood-opacity="0" result="BackgroundImageFix"/><feGaussianBlur in="BackgroundImageFix" stdDeviation="4.025"/><feComposite in2="SourceAlpha" operator="in" result="effect1_backgroundBlur_3136_9356"/><feColorMatrix in="SourceAlpha" result="hardAlpha" values="0 0 0 0 0 0 0 0 0 0 0 0 0 0 0 0 0 0 127 0"/><feOffset dx="2.683" dy="2.683"/><feGaussianBlur stdDeviation="2.683"/><feColorMatrix values="0 0 0 0 0.577356 0 0 0 0 0.359375 0 0 0 0 0.9375 0 0 0 0.5 0"/><feBlend in2="effect1_backgroundBlur_3136_9356" result="effect2_dropShadow_3136_9356"/><feBlend in="SourceGraphic" in2="effect2_dropShadow_3136_9356" result="shape"/></filter><filter id="l" width="45.685" height="45.684" x="28.428" y="45.037" color-interpolation-filters="sRGB" filterUnits="userSpaceOnUse"><feFlood flood-opacity="0" result="BackgroundImageFix"/><feGaussianBlur in="BackgroundImageFix" stdDeviation="7.194"/><feComposite in2="SourceAlpha" operator="in" result="effect1_backgroundBlur_3136_9356"/><feColorMatrix in="SourceAlpha" result="hardAlpha" values="0 0 0 0 0 0 0 0 0 0 0 0 0 0 0 0 0 0 127 0"/><feOffset dx="4.796" dy="4.796"/><feGaussianBlur stdDeviation="4.796"/><feColorMatrix values="0 0 0 0 0.577356 0 0 0 0 0.359375 0 0 0 0 0.9375 0 0 0 0.5 0"/><feBlend in2="effect1_backgroundBlur_3136_9356" result="effect2_dropShadow_3136_9356"/><feBlend in="SourceGraphic" in2="effect2_dropShadow_3136_9356" result="shape"/></filter></defs></svg>