<svg xmlns="http://www.w3.org/2000/svg" width="120" height="120" fill="none" viewBox="0 0 120 120"><g filter="url(#a)"><path fill="url(#b)" d="M104.498 55.599c-1.048-1.229-2.312-2.253-3.696-3.083-3.034-1.85-6.596-2.617-10.149-2.218-.106-.27-.267-.548-.409-.809-.139-.265-.337-.829-.56-1.201l-.61-.873a9 9 0 0 0-1.038-1.401.9.9 0 0 0-.12-.248l-.129-.078a16 16 0 0 0-3.58-3.132l-.24-.145a15 15 0 0 0-1.921-.973l-.263-.158c-.71-.31-1.457-.55-2.224-.712-9.786-2.232-18.03 4.897-20.21 14.144a33.1 33.1 0 0 0 .286 14.482 97.4 97.4 0 0 0 7.437 19.253l.358.695.746-.002a98.3 98.3 0 0 0 20.405-2.544 32.54 32.54 0 0 0 12.924-6.583c7.093-6.299 9.506-16.927 2.993-24.414"/></g><g filter="url(#c)" opacity=".5"><path fill="#EE2965" d="M90.115 58.906a9.4 9.4 0 0 0-2.332-1.946 10.1 10.1 0 0 0-6.405-1.4c-.067-.17-.169-.345-.258-.51-.088-.167-.213-.523-.354-.758l-.385-.55a5.7 5.7 0 0 0-.654-.885.6.6 0 0 0-.076-.156l-.081-.049a10 10 0 0 0-2.26-1.977l-.152-.091a9 9 0 0 0-1.212-.615l-.165-.1a7.3 7.3 0 0 0-1.404-.448C68.202 48.012 63 52.51 61.624 58.346a20.9 20.9 0 0 0 .18 9.139 61.5 61.5 0 0 0 4.693 12.15l.226.438.471-.001a62 62 0 0 0 12.877-1.606 20.5 20.5 0 0 0 8.155-4.154c4.476-3.975 5.999-10.682 1.889-15.406"/></g><g filter="url(#d)"><path fill="url(#e)" d="M98.352 33.178a3.3 3.3 0 0 0-.874-.607 3.54 3.54 0 0 0-2.277-.291c-.029-.058-.07-.116-.106-.17-.036-.056-.09-.177-.147-.254l-.15-.18a2 2 0 0 0-.256-.289.2.2 0 0 0-.032-.052l-.03-.015a3.5 3.5 0 0 0-.848-.62l-.056-.027a3 3 0 0 0-.442-.177l-.061-.03a2.6 2.6 0 0 0-.503-.113c-2.198-.302-3.875 1.427-4.175 3.505a7.3 7.3 0 0 0 .344 3.183 21.5 21.5 0 0 0 2.01 4.095l.093.146.164-.015c1.512-.163 3-.483 4.443-.956a7.2 7.2 0 0 0 2.717-1.7c1.44-1.524 1.765-3.911.186-5.433"/></g><g filter="url(#f)"><path fill="#FF7474" fill-opacity=".35" d="M63.923 21.796c-2.33-.358-4.701-.285-7.02.117-5.116.847-9.782 3.396-13.325 7.223-.375-.196-.818-.35-1.223-.503-.406-.161-1.163-.594-1.765-.793l-1.505-.383c-.805-.277-1.624-.438-2.481-.559a1.3 1.3 0 0 0-.369-.16l-.216.038q-3.45-.544-6.94-.048l-.405.07c-1.029.178-2.042.425-3.049.755l-.441.076a17 17 0 0 0-3.135 1.334C9.113 35.824 6.8 51.556 13.206 63.849a48.24 48.24 0 0 0 14.12 15.723 142 142 0 0 0 26.564 14.18l1.058.426.823-.714a143.4 143.4 0 0 0 20.114-22.258c4.1-5.816 6.836-12.54 8.001-19.59 1.832-13.718-5.633-27.758-19.963-29.82"/></g><g filter="url(#g)"><path fill="url(#h)" d="M73.68 43.384c.157 1.567-.92 2.999-2.42 3.3-.822.063-1.657-.168-2.28-.703a3.2 3.2 0 0 1-1.092-2.158l-.02-.114c-.445-2.57-2.423-4.616-4.932-5.09a3.05 3.05 0 0 1-2.492-3.464c.284-1.64 1.798-2.738 3.394-2.48 5.057.98 8.985 5.103 9.766 10.272z"/><path stroke="url(#i)" stroke-width=".4" d="M68.087 43.805v-.008l-.002-.008-.02-.114c-.458-2.65-2.498-4.762-5.091-5.253h-.004a2.85 2.85 0 0 1-2.328-3.235c.266-1.533 1.679-2.553 3.161-2.316 4.971.965 8.835 5.02 9.603 10.106v.004l.075.43c.143 1.457-.858 2.789-2.248 3.074-.773.056-1.548-.162-2.122-.656a3 3 0 0 1-1.024-2.024Z"/></g><defs><filter id="a" width="75.618" height="74.986" x="45.683" y="27.156" color-interpolation-filters="sRGB" filterUnits="userSpaceOnUse"><feFlood flood-opacity="0" result="BackgroundImageFix"/><feGaussianBlur in="BackgroundImageFix" stdDeviation="6.5"/><feComposite in2="SourceAlpha" operator="in" result="effect1_backgroundBlur_3136_9374"/><feBlend in="SourceGraphic" in2="effect1_backgroundBlur_3136_9374" result="shape"/></filter><filter id="c" width="67.311" height="66.912" x="43.203" y="31.161" color-interpolation-filters="sRGB" filterUnits="userSpaceOnUse"><feFlood flood-opacity="0" result="BackgroundImageFix"/><feBlend in="SourceGraphic" in2="BackgroundImageFix" result="shape"/><feGaussianBlur result="effect1_foregroundBlur_3136_9374" stdDeviation="9"/></filter><filter id="d" width="37.052" height="36.963" x="75.348" y="17.318" color-interpolation-filters="sRGB" filterUnits="userSpaceOnUse"><feFlood flood-opacity="0" result="BackgroundImageFix"/><feGaussianBlur in="BackgroundImageFix" stdDeviation="6.5"/><feComposite in2="SourceAlpha" operator="in" result="effect1_backgroundBlur_3136_9374"/><feBlend in="SourceGraphic" in2="effect1_backgroundBlur_3136_9374" result="shape"/></filter><filter id="f" width="122.395" height="120.613" x="-14.235" y="-2.435" color-interpolation-filters="sRGB" filterUnits="userSpaceOnUse"><feFlood flood-opacity="0" result="BackgroundImageFix"/><feGaussianBlur in="BackgroundImageFix" stdDeviation="12"/><feComposite in2="SourceAlpha" operator="in" result="effect1_backgroundBlur_3136_9374"/><feBlend in="SourceGraphic" in2="effect1_backgroundBlur_3136_9374" result="shape"/></filter><filter id="g" width="43.285" height="44.057" x="45.409" y="17.637" color-interpolation-filters="sRGB" filterUnits="userSpaceOnUse"><feFlood flood-opacity="0" result="BackgroundImageFix"/><feGaussianBlur in="BackgroundImageFix" stdDeviation="7.5"/><feComposite in2="SourceAlpha" operator="in" result="effect1_backgroundBlur_3136_9374"/><feColorMatrix in="SourceAlpha" result="hardAlpha" values="0 0 0 0 0 0 0 0 0 0 0 0 0 0 0 0 0 0 127 0"/><feOffset dx="5" dy="5"/><feGaussianBlur stdDeviation="5"/><feColorMatrix values="0 0 0 0 1 0 0 0 0 0.321569 0 0 0 0 0.54902 0 0 0 0.5 0"/><feBlend in2="effect1_backgroundBlur_3136_9374" result="effect2_dropShadow_3136_9374"/><feBlend in="SourceGraphic" in2="effect2_dropShadow_3136_9374" result="shape"/></filter><linearGradient id="b" x1="81.417" x2="32.076" y1="73.003" y2="69.668" gradientUnits="userSpaceOnUse"><stop stop-color="#FF7575"/><stop offset="1" stop-color="#FF1919"/></linearGradient><linearGradient id="e" x1="93.608" x2="82.68" y1="37.457" y2="37.68" gradientUnits="userSpaceOnUse"><stop stop-color="#FF7575"/><stop offset="1" stop-color="#FF1919"/></linearGradient><linearGradient id="h" x1="71.214" x2="58.316" y1="34.028" y2="36.597" gradientUnits="userSpaceOnUse"><stop stop-color="#fff"/><stop offset="1" stop-color="#fff" stop-opacity=".2"/></linearGradient><linearGradient id="i" x1="62.097" x2="73.505" y1="34.615" y2="42.31" gradientUnits="userSpaceOnUse"><stop stop-color="#fff" stop-opacity=".25"/><stop offset="1" stop-color="#fff" stop-opacity="0"/></linearGradient></defs></svg>